<?xml version="1.0" encoding="UTF-8" standalone="no"?>
<svg width="291.042mm" height="113.242mm"
 viewBox="0 0 1100 427"
 xmlns="http://www.w3.org/2000/svg" xmlns:xlink="http://www.w3.org/1999/xlink"  version="1.2" baseProfile="tiny">
<title>Qt SVG Document</title>
<desc>Generated with Qt</desc>
<defs>
</defs>
<g fill="none" stroke="black" stroke-width="1" fill-rule="evenodd" stroke-linecap="square" stroke-linejoin="bevel" >

<g fill="none" stroke="#000000" stroke-opacity="1" stroke-width="1" stroke-linecap="square" stroke-linejoin="bevel" transform="matrix(1,0,0,1,0,0)"
font-family="Ubuntu" font-size="14.6667" font-weight="400" font-style="normal" 
>
</g>

<g fill="none" stroke="#000000" stroke-opacity="1" stroke-width="1" stroke-linecap="square" stroke-linejoin="bevel" transform="matrix(1,0,0,1,0,0)"
font-family="Ubuntu" font-size="14.6667" font-weight="400" font-style="normal" 
>
</g>

<g fill="none" stroke="#000000" stroke-opacity="1" stroke-width="1" stroke-linecap="square" stroke-linejoin="bevel" transform="matrix(0.996508,0,0,0.996508,2317.88,-73.7416)"
font-family="Ubuntu" font-size="14.6667" font-weight="400" font-style="normal" 
>
</g>

<g fill="#ffffff" fill-opacity="1" stroke="none" transform="matrix(0.996508,0,0,0.996508,2317.88,-73.7416)"
font-family="Ubuntu" font-size="14.6667" font-weight="400" font-style="normal" 
>
<rect x="-2326" y="74" width="1102" height="429.5"/>
</g>

<g fill="none" stroke="#000000" stroke-opacity="1" stroke-width="1" stroke-linecap="square" stroke-linejoin="bevel" transform="matrix(0.996508,0,0,0.996508,2317.88,-73.7416)"
font-family="Ubuntu" font-size="14.6667" font-weight="400" font-style="normal" 
>
</g>

<g fill="none" stroke="#000000" stroke-opacity="1" stroke-width="1" stroke-linecap="square" stroke-linejoin="bevel" transform="matrix(0.996508,0,0,0.996508,225.211,125.56)"
font-family="Ubuntu" font-size="14.6667" font-weight="400" font-style="normal" 
>
</g>

<g fill="none" stroke="#204a87" stroke-opacity="1" stroke-width="1" stroke-linecap="square" stroke-linejoin="bevel" transform="matrix(0.996508,0,0,0.996508,225.211,125.56)"
font-family="Ubuntu" font-size="14.6667" font-weight="400" font-style="normal" 
>
<rect vector-effect="non-scaling-stroke" x="0" y="0" width="275" height="300"/>
</g>

<g fill="none" stroke="#000000" stroke-opacity="1" stroke-width="1" stroke-linecap="square" stroke-linejoin="bevel" transform="matrix(0.996508,0,0,0.996508,225.211,125.56)"
font-family="Ubuntu" font-size="14.6667" font-weight="400" font-style="normal" 
>
</g>

<g fill="none" stroke="#000000" stroke-opacity="1" stroke-width="1" stroke-linecap="square" stroke-linejoin="bevel" transform="matrix(0.996508,0,0,0.996508,225.211,125.56)"
font-family="Ubuntu" font-size="14.6667" font-weight="400" font-style="normal" 
>
<text fill="#000000" fill-opacity="1" stroke="none" xml:space="preserve" x="5" y="14" font-family="Ubuntu" font-size="14.6667" font-weight="400" font-style="normal" 
 >loop</text>
</g>

<g fill="none" stroke="#204a87" stroke-opacity="1" stroke-width="1" stroke-linecap="square" stroke-linejoin="bevel" transform="matrix(0.996508,0,0,0.996508,225.211,125.56)"
font-family="Ubuntu" font-size="14.6667" font-weight="400" font-style="normal" 
>
<polyline fill="none" vector-effect="non-scaling-stroke" points="0,20 45,20 " />
<polyline fill="none" vector-effect="non-scaling-stroke" points="45,20 55,10 " />
<polyline fill="none" vector-effect="non-scaling-stroke" points="55,10 55,0 " />
</g>

<g fill="none" stroke="#000000" stroke-opacity="1" stroke-width="1" stroke-linecap="square" stroke-linejoin="bevel" transform="matrix(0.996508,0,0,0.996508,225.211,125.56)"
font-family="Ubuntu" font-size="14.6667" font-weight="400" font-style="normal" 
>
</g>

<g fill="none" stroke="#000000" stroke-opacity="1" stroke-width="1" stroke-linecap="square" stroke-linejoin="bevel" transform="matrix(0.996508,0,0,0.996508,2317.88,-73.7416)"
font-family="Ubuntu" font-size="14.6667" font-weight="400" font-style="normal" 
>
</g>

<g fill="none" stroke="#ff0000" stroke-opacity="1" stroke-dasharray="4,2" stroke-dashoffset="0" stroke-width="1" stroke-linecap="square" stroke-linejoin="bevel" transform="matrix(0.996508,0,0,0.996508,2317.88,-73.7416)"
font-family="Ubuntu" font-size="14.6667" font-weight="400" font-style="normal" 
>
<polyline fill="none" vector-effect="non-scaling-stroke" points="-2250,150 -2250,479 " />
</g>

<g fill="none" stroke="#000000" stroke-opacity="1" stroke-width="1" stroke-linecap="square" stroke-linejoin="bevel" transform="matrix(0.996508,0,0,0.996508,2317.88,-73.7416)"
font-family="Ubuntu" font-size="14.6667" font-weight="400" font-style="normal" 
>
</g>

<g fill="none" stroke="#000000" stroke-opacity="1" stroke-width="1" stroke-linecap="square" stroke-linejoin="bevel" transform="matrix(0.996508,0,0,0.996508,0.996508,0.996508)"
font-family="Ubuntu" font-size="14.6667" font-weight="400" font-style="normal" 
>
</g>

<g fill="#ffff00" fill-opacity="1" stroke="#ff0000" stroke-opacity="1" stroke-width="1" stroke-linecap="square" stroke-linejoin="bevel" transform="matrix(0.996508,0,0,0.996508,0.996508,0.996508)"
font-family="Ubuntu" font-size="14.6667" font-weight="400" font-style="normal" 
>
<ellipse vector-effect="non-scaling-stroke" cx="75" cy="6.5" rx="10" ry="6.5"/>
<polyline fill="none" vector-effect="non-scaling-stroke" points="75,13 75,26 " />
<polyline fill="none" vector-effect="non-scaling-stroke" points="75,26 65,40 " />
<polyline fill="none" vector-effect="non-scaling-stroke" points="75,26 85,40 " />
<polyline fill="none" vector-effect="non-scaling-stroke" points="65,19 85,19 " />
</g>

<g fill="#ffff00" fill-opacity="1" stroke="#000000" stroke-opacity="1" stroke-width="1" stroke-linecap="square" stroke-linejoin="bevel" transform="matrix(0.996508,0,0,0.996508,0.996508,0.996508)"
font-family="Ubuntu" font-size="14.6667" font-weight="400" font-style="normal" 
>
</g>

<g fill="#ffff00" fill-opacity="1" stroke="#000000" stroke-opacity="1" stroke-width="1" stroke-linecap="square" stroke-linejoin="bevel" transform="matrix(0.996508,0,0,0.996508,0.996508,0.996508)"
font-family="Ubuntu" font-size="14.6667" font-weight="400" font-style="normal" 
>
<text fill="#000000" fill-opacity="1" stroke="none" xml:space="preserve" x="15.5313" y="59" font-family="Ubuntu" font-size="14.6667" font-weight="400" font-style="normal" 
 > : MyStromSwich_</text>
</g>

<g fill="none" stroke="#000000" stroke-opacity="1" stroke-width="1" stroke-linecap="square" stroke-linejoin="bevel" transform="matrix(0.996508,0,0,0.996508,0.996508,0.996508)"
font-family="Ubuntu" font-size="14.6667" font-weight="400" font-style="normal" 
>
</g>

<g fill="none" stroke="#000000" stroke-opacity="1" stroke-width="1" stroke-linecap="square" stroke-linejoin="bevel" transform="matrix(0.996508,0,0,0.996508,2317.88,-73.7416)"
font-family="Ubuntu" font-size="14.6667" font-weight="400" font-style="normal" 
>
</g>

<g fill="none" stroke="#ff0000" stroke-opacity="1" stroke-dasharray="4,2" stroke-dashoffset="0" stroke-width="1" stroke-linecap="square" stroke-linejoin="bevel" transform="matrix(0.996508,0,0,0.996508,2317.88,-73.7416)"
font-family="Ubuntu" font-size="14.6667" font-weight="400" font-style="normal" 
>
<polyline fill="none" vector-effect="non-scaling-stroke" points="-1975,125 -1975,428 " />
</g>

<g fill="none" stroke="#000000" stroke-opacity="1" stroke-width="1" stroke-linecap="square" stroke-linejoin="bevel" transform="matrix(0.996508,0,0,0.996508,2317.88,-73.7416)"
font-family="Ubuntu" font-size="14.6667" font-weight="400" font-style="normal" 
>
</g>

<g fill="none" stroke="#000000" stroke-opacity="1" stroke-width="1" stroke-linecap="square" stroke-linejoin="bevel" transform="matrix(0.996508,0,0,0.996508,299.949,0.996508)"
font-family="Ubuntu" font-size="14.6667" font-weight="400" font-style="normal" 
>
</g>

<g fill="#ffff00" fill-opacity="1" stroke="#ff0000" stroke-opacity="1" stroke-width="1" stroke-linecap="square" stroke-linejoin="bevel" transform="matrix(0.996508,0,0,0.996508,299.949,0.996508)"
font-family="Ubuntu" font-size="14.6667" font-weight="400" font-style="normal" 
>
<rect vector-effect="non-scaling-stroke" x="0" y="0" width="100" height="50"/>
</g>

<g fill="#ffff00" fill-opacity="1" stroke="#000000" stroke-opacity="1" stroke-width="1" stroke-linecap="square" stroke-linejoin="bevel" transform="matrix(0.996508,0,0,0.996508,299.949,0.996508)"
font-family="Ubuntu" font-size="14.6667" font-weight="400" font-style="normal" 
>
</g>

<g fill="#ffff00" fill-opacity="1" stroke="#000000" stroke-opacity="1" stroke-width="1" stroke-linecap="square" stroke-linejoin="bevel" transform="matrix(0.996508,0,0,0.996508,299.949,0.996508)"
font-family="Ubuntu" font-size="14.6667" font-weight="400" font-style="normal" 
>
<text fill="#000000" fill-opacity="1" stroke="none" xml:space="preserve" x="13.6875" y="30.5" font-family="Ubuntu" font-size="14.6667" font-weight="400" font-style="normal" 
 > : MyStrom</text>
</g>

<g fill="#ffff00" fill-opacity="1" stroke="#000000" stroke-opacity="1" stroke-width="1.1875" stroke-linecap="butt" stroke-linejoin="bevel" transform="matrix(0.996508,0,0,0.996508,299.949,0.996508)"
font-family="Ubuntu" font-size="14.6667" font-weight="400" font-style="normal" 
>
<polyline fill="none" vector-effect="none" points="13,33 86,33 " />
</g>

<g fill="none" stroke="#000000" stroke-opacity="1" stroke-width="1" stroke-linecap="square" stroke-linejoin="bevel" transform="matrix(0.996508,0,0,0.996508,299.949,0.996508)"
font-family="Ubuntu" font-size="14.6667" font-weight="400" font-style="normal" 
>
</g>

<g fill="none" stroke="#000000" stroke-opacity="1" stroke-width="1" stroke-linecap="square" stroke-linejoin="bevel" transform="matrix(0.996508,0,0,0.996508,374.687,125.56)"
font-family="Ubuntu" font-size="14.6667" font-weight="400" font-style="normal" 
>
</g>

<g fill="none" stroke="#000000" stroke-opacity="1" stroke-width="1" stroke-linecap="square" stroke-linejoin="bevel" transform="matrix(0.996508,0,0,0.996508,374.687,125.56)"
font-family="Ubuntu" font-size="14.6667" font-weight="400" font-style="normal" 
>
</g>

<g fill="none" stroke="#000000" stroke-opacity="1" stroke-width="1" stroke-linecap="square" stroke-linejoin="bevel" transform="matrix(0.996508,0,0,0.996508,374.687,125.56)"
font-family="Ubuntu" font-size="14.6667" font-weight="400" font-style="normal" 
>
<text fill="#000000" fill-opacity="1" stroke="none" xml:space="preserve" x="8.9375" y="18" font-family="Ubuntu" font-size="14.6667" font-weight="400" font-style="normal" 
 >2: loop()</text>
</g>

<g fill="none" stroke="#000000" stroke-opacity="1" stroke-width="1" stroke-linecap="square" stroke-linejoin="bevel" transform="matrix(0.996508,0,0,0.996508,374.687,125.56)"
font-family="Ubuntu" font-size="14.6667" font-weight="400" font-style="normal" 
>
</g>

<g fill="none" stroke="#000000" stroke-opacity="1" stroke-width="1" stroke-linecap="square" stroke-linejoin="bevel" transform="matrix(0.996508,0,0,0.996508,2317.88,-73.7416)"
font-family="Ubuntu" font-size="14.6667" font-weight="400" font-style="normal" 
>
</g>

<g fill="none" stroke="#ff0000" stroke-opacity="1" stroke-dasharray="4,2" stroke-dashoffset="0" stroke-width="1" stroke-linecap="square" stroke-linejoin="bevel" transform="matrix(0.996508,0,0,0.996508,2317.88,-73.7416)"
font-family="Ubuntu" font-size="14.6667" font-weight="400" font-style="normal" 
>
<polyline fill="none" vector-effect="non-scaling-stroke" points="-1500,283 -1500,286 " />
</g>

<g fill="none" stroke="#000000" stroke-opacity="1" stroke-width="1" stroke-linecap="square" stroke-linejoin="bevel" transform="matrix(0.996508,0,0,0.996508,2317.88,-73.7416)"
font-family="Ubuntu" font-size="14.6667" font-weight="400" font-style="normal" 
>
</g>

<g fill="none" stroke="#000000" stroke-opacity="1" stroke-width="1" stroke-linecap="square" stroke-linejoin="bevel" transform="matrix(0.996508,0,0,0.996508,748.377,158.777)"
font-family="Ubuntu" font-size="14.6667" font-weight="400" font-style="normal" 
>
</g>

<g fill="#ffff00" fill-opacity="1" stroke="#ff0000" stroke-opacity="1" stroke-width="1" stroke-linecap="square" stroke-linejoin="bevel" transform="matrix(0.996508,0,0,0.996508,748.377,158.777)"
font-family="Ubuntu" font-size="14.6667" font-weight="400" font-style="normal" 
>
<rect vector-effect="non-scaling-stroke" x="0" y="0" width="150" height="50"/>
</g>

<g fill="#ffff00" fill-opacity="1" stroke="#000000" stroke-opacity="1" stroke-width="1" stroke-linecap="square" stroke-linejoin="bevel" transform="matrix(0.996508,0,0,0.996508,748.377,158.777)"
font-family="Ubuntu" font-size="14.6667" font-weight="400" font-style="normal" 
>
</g>

<g fill="#ffff00" fill-opacity="1" stroke="#000000" stroke-opacity="1" stroke-width="1" stroke-linecap="square" stroke-linejoin="bevel" transform="matrix(0.996508,0,0,0.996508,748.377,158.777)"
font-family="Ubuntu" font-size="14.6667" font-weight="400" font-style="normal" 
>
<text fill="#000000" fill-opacity="1" stroke="none" xml:space="preserve" x="10.2188" y="30.5" font-family="Ubuntu" font-size="14.6667" font-weight="400" font-style="normal" 
 > : MyStromElement</text>
</g>

<g fill="#ffff00" fill-opacity="1" stroke="#000000" stroke-opacity="1" stroke-width="1.1875" stroke-linecap="butt" stroke-linejoin="bevel" transform="matrix(0.996508,0,0,0.996508,748.377,158.777)"
font-family="Ubuntu" font-size="14.6667" font-weight="400" font-style="normal" 
>
<polyline fill="none" vector-effect="none" points="10,33 139,33 " />
</g>

<g fill="none" stroke="#000000" stroke-opacity="1" stroke-width="1" stroke-linecap="square" stroke-linejoin="bevel" transform="matrix(0.996508,0,0,0.996508,748.377,158.777)"
font-family="Ubuntu" font-size="14.6667" font-weight="400" font-style="normal" 
>
</g>

<g fill="none" stroke="#000000" stroke-opacity="1" stroke-width="1" stroke-linecap="square" stroke-linejoin="bevel" transform="matrix(0.996508,0,0,0.996508,2317.88,-73.7416)"
font-family="Ubuntu" font-size="14.6667" font-weight="400" font-style="normal" 
>
</g>

<g fill="none" stroke="#ff0000" stroke-opacity="1" stroke-dasharray="4,2" stroke-dashoffset="0" stroke-width="1" stroke-linecap="square" stroke-linejoin="bevel" transform="matrix(0.996508,0,0,0.996508,2317.88,-73.7416)"
font-family="Ubuntu" font-size="14.6667" font-weight="400" font-style="normal" 
>
<polyline fill="none" vector-effect="non-scaling-stroke" points="-1300,425 -1300,479 " />
</g>

<g fill="none" stroke="#000000" stroke-opacity="1" stroke-width="1" stroke-linecap="square" stroke-linejoin="bevel" transform="matrix(0.996508,0,0,0.996508,2317.88,-73.7416)"
font-family="Ubuntu" font-size="14.6667" font-weight="400" font-style="normal" 
>
</g>

<g fill="none" stroke="#000000" stroke-opacity="1" stroke-width="1" stroke-linecap="square" stroke-linejoin="bevel" transform="matrix(0.996508,0,0,0.996508,947.679,299.949)"
font-family="Ubuntu" font-size="14.6667" font-weight="400" font-style="normal" 
>
</g>

<g fill="#ffff00" fill-opacity="1" stroke="#ff0000" stroke-opacity="1" stroke-width="1" stroke-linecap="square" stroke-linejoin="bevel" transform="matrix(0.996508,0,0,0.996508,947.679,299.949)"
font-family="Ubuntu" font-size="14.6667" font-weight="400" font-style="normal" 
>
<rect vector-effect="non-scaling-stroke" x="0" y="0" width="150" height="50"/>
</g>

<g fill="#ffff00" fill-opacity="1" stroke="#000000" stroke-opacity="1" stroke-width="1" stroke-linecap="square" stroke-linejoin="bevel" transform="matrix(0.996508,0,0,0.996508,947.679,299.949)"
font-family="Ubuntu" font-size="14.6667" font-weight="400" font-style="normal" 
>
</g>

<g fill="#ffff00" fill-opacity="1" stroke="#000000" stroke-opacity="1" stroke-width="1" stroke-linecap="square" stroke-linejoin="bevel" transform="matrix(0.996508,0,0,0.996508,947.679,299.949)"
font-family="Ubuntu" font-size="14.6667" font-weight="400" font-style="normal" 
>
<text fill="#000000" fill-opacity="1" stroke="none" xml:space="preserve" x="16.3125" y="30.5" font-family="Ubuntu" font-size="14.6667" font-weight="400" font-style="normal" 
 > : MyStromSwitch</text>
</g>

<g fill="#ffff00" fill-opacity="1" stroke="#000000" stroke-opacity="1" stroke-width="1.1875" stroke-linecap="butt" stroke-linejoin="bevel" transform="matrix(0.996508,0,0,0.996508,947.679,299.949)"
font-family="Ubuntu" font-size="14.6667" font-weight="400" font-style="normal" 
>
<polyline fill="none" vector-effect="none" points="16,33 133,33 " />
</g>

<g fill="none" stroke="#000000" stroke-opacity="1" stroke-width="1" stroke-linecap="square" stroke-linejoin="bevel" transform="matrix(0.996508,0,0,0.996508,947.679,299.949)"
font-family="Ubuntu" font-size="14.6667" font-weight="400" font-style="normal" 
>
</g>

<g fill="none" stroke="#000000" stroke-opacity="1" stroke-width="1" stroke-linecap="square" stroke-linejoin="bevel" transform="matrix(0.996508,0,0,0.996508,399.6,299.949)"
font-family="Ubuntu" font-size="14.6667" font-weight="400" font-style="normal" 
>
</g>

<g fill="none" stroke="#000000" stroke-opacity="1" stroke-width="1" stroke-linecap="square" stroke-linejoin="bevel" transform="matrix(0.996508,0,0,0.996508,399.6,299.949)"
font-family="Ubuntu" font-size="14.6667" font-weight="400" font-style="normal" 
>
</g>

<g fill="none" stroke="#000000" stroke-opacity="1" stroke-width="1" stroke-linecap="square" stroke-linejoin="bevel" transform="matrix(0.996508,0,0,0.996508,399.6,299.949)"
font-family="Ubuntu" font-size="14.6667" font-weight="400" font-style="normal" 
>
<text fill="#000000" fill-opacity="1" stroke="none" xml:space="preserve" x="4.6875" y="18" font-family="Ubuntu" font-size="14.6667" font-weight="400" font-style="normal" 
 >5: MyStromSwitch(clientIn : Client*, myStromElementIn : MyStromElement*)</text>
</g>

<g fill="none" stroke="#000000" stroke-opacity="1" stroke-width="1" stroke-linecap="square" stroke-linejoin="bevel" transform="matrix(0.996508,0,0,0.996508,399.6,299.949)"
font-family="Ubuntu" font-size="14.6667" font-weight="400" font-style="normal" 
>
</g>

<g fill="none" stroke="#000000" stroke-opacity="1" stroke-width="1" stroke-linecap="square" stroke-linejoin="bevel" transform="matrix(0.996508,0,0,0.996508,997.504,399.6)"
font-family="Ubuntu" font-size="14.6667" font-weight="400" font-style="normal" 
>
</g>

<g fill="none" stroke="#000000" stroke-opacity="1" stroke-width="1" stroke-linecap="square" stroke-linejoin="bevel" transform="matrix(0.996508,0,0,0.996508,997.504,399.6)"
font-family="Ubuntu" font-size="14.6667" font-weight="400" font-style="normal" 
>
</g>

<g fill="none" stroke="#000000" stroke-opacity="1" stroke-width="1" stroke-linecap="square" stroke-linejoin="bevel" transform="matrix(0.996508,0,0,0.996508,997.504,399.6)"
font-family="Ubuntu" font-size="14.6667" font-weight="400" font-style="normal" 
>
<text fill="#000000" fill-opacity="1" stroke="none" xml:space="preserve" x="6.96875" y="18" font-family="Ubuntu" font-size="14.6667" font-weight="400" font-style="normal" 
 >...</text>
</g>

<g fill="none" stroke="#000000" stroke-opacity="1" stroke-width="1" stroke-linecap="square" stroke-linejoin="bevel" transform="matrix(0.996508,0,0,0.996508,997.504,399.6)"
font-family="Ubuntu" font-size="14.6667" font-weight="400" font-style="normal" 
>
</g>

<g fill="none" stroke="#000000" stroke-opacity="1" stroke-width="1" stroke-linecap="square" stroke-linejoin="bevel" transform="matrix(0.996508,0,0,0.996508,100.647,154.459)"
font-family="Ubuntu" font-size="14.6667" font-weight="400" font-style="normal" 
>
</g>

<g fill="none" stroke="#000000" stroke-opacity="1" stroke-width="1" stroke-linecap="square" stroke-linejoin="bevel" transform="matrix(0.996508,0,0,0.996508,100.647,154.459)"
font-family="Ubuntu" font-size="14.6667" font-weight="400" font-style="normal" 
>
</g>

<g fill="none" stroke="#000000" stroke-opacity="1" stroke-width="1" stroke-linecap="square" stroke-linejoin="bevel" transform="matrix(0.996508,0,0,0.996508,100.647,154.459)"
font-family="Ubuntu" font-size="14.6667" font-weight="400" font-style="normal" 
>
<text fill="#000000" fill-opacity="1" stroke="none" xml:space="preserve" x="9.53125" y="18" font-family="Ubuntu" font-size="14.6667" font-weight="400" font-style="normal" 
 >3: Detect myStrom devices</text>
</g>

<g fill="none" stroke="#000000" stroke-opacity="1" stroke-width="1" stroke-linecap="square" stroke-linejoin="bevel" transform="matrix(0.996508,0,0,0.996508,100.647,154.459)"
font-family="Ubuntu" font-size="14.6667" font-weight="400" font-style="normal" 
>
</g>

<g fill="none" stroke="#000000" stroke-opacity="1" stroke-width="1" stroke-linecap="square" stroke-linejoin="bevel" transform="matrix(0.996508,0,0,0.996508,287.991,247.134)"
font-family="Ubuntu" font-size="14.6667" font-weight="400" font-style="normal" 
>
</g>

<g fill="#ffff00" fill-opacity="1" stroke="#ff0000" stroke-opacity="1" stroke-width="1" stroke-linecap="square" stroke-linejoin="bevel" transform="matrix(0.996508,0,0,0.996508,287.991,247.134)"
font-family="Ubuntu" font-size="14.6667" font-weight="400" font-style="normal" 
>
<path vector-effect="non-scaling-stroke" fill-rule="evenodd" d="M0,8.1 C0,3.62649 3.35786,0 7.5,0 L117.5,0 C121.642,0 125,3.62649 125,8.1 L125,18.9 C125,23.3735 121.642,27 117.5,27 L7.5,27 C3.35786,27 0,23.3735 0,18.9 L0,8.1"/>
</g>

<g fill="#ffff00" fill-opacity="1" stroke="#000000" stroke-opacity="1" stroke-width="1" stroke-linecap="square" stroke-linejoin="bevel" transform="matrix(0.996508,0,0,0.996508,287.991,247.134)"
font-family="Ubuntu" font-size="14.6667" font-weight="400" font-style="normal" 
>
</g>

<g fill="#ffff00" fill-opacity="1" stroke="#000000" stroke-opacity="1" stroke-width="1" stroke-linecap="square" stroke-linejoin="bevel" transform="matrix(0.996508,0,0,0.996508,287.991,247.134)"
font-family="Ubuntu" font-size="14.6667" font-weight="400" font-style="normal" 
>
<text fill="#000000" fill-opacity="1" stroke="none" xml:space="preserve" x="9.26563" y="19" font-family="Ubuntu" font-size="14.6667" font-weight="400" font-style="normal" 
 >{ elementExist }</text>
</g>

<g fill="none" stroke="#000000" stroke-opacity="1" stroke-width="1" stroke-linecap="square" stroke-linejoin="bevel" transform="matrix(0.996508,0,0,0.996508,287.991,247.134)"
font-family="Ubuntu" font-size="14.6667" font-weight="400" font-style="normal" 
>
</g>

<g fill="none" stroke="#000000" stroke-opacity="1" stroke-width="1" stroke-linecap="square" stroke-linejoin="bevel" transform="matrix(0.996508,0,0,0.996508,350.771,324.861)"
font-family="Ubuntu" font-size="14.6667" font-weight="400" font-style="normal" 
>
</g>

<g fill="none" stroke="#ff0000" stroke-opacity="1" stroke-width="1" stroke-linecap="square" stroke-linejoin="bevel" transform="matrix(0.996508,0,0,0.996508,350.771,324.861)"
font-family="Ubuntu" font-size="14.6667" font-weight="400" font-style="normal" 
>
<polyline fill="none" vector-effect="non-scaling-stroke" points="598,4 594,1 " />
<polyline fill="none" vector-effect="non-scaling-stroke" points="598,4 594,7 " />
<polyline fill="none" vector-effect="non-scaling-stroke" points="0,4 598,4 " />
</g>

<g fill="none" stroke="#000000" stroke-opacity="1" stroke-width="1" stroke-linecap="square" stroke-linejoin="bevel" transform="matrix(0.996508,0,0,0.996508,350.771,324.861)"
font-family="Ubuntu" font-size="14.6667" font-weight="400" font-style="normal" 
>
</g>

<g fill="none" stroke="#000000" stroke-opacity="1" stroke-width="1" stroke-linecap="square" stroke-linejoin="bevel" transform="matrix(0.996508,0,0,0.996508,76.7311,375.683)"
font-family="Ubuntu" font-size="14.6667" font-weight="400" font-style="normal" 
>
</g>

<g fill="none" stroke="#ff0000" stroke-opacity="1" stroke-width="1" stroke-linecap="square" stroke-linejoin="bevel" transform="matrix(0.996508,0,0,0.996508,76.7311,375.683)"
font-family="Ubuntu" font-size="14.6667" font-weight="400" font-style="normal" 
>
<polyline fill="none" vector-effect="non-scaling-stroke" points="0,4 4,1 " />
<polyline fill="none" vector-effect="non-scaling-stroke" points="0,4 4,7 " />
<polyline fill="none" vector-effect="non-scaling-stroke" points="0,4 947,4 " />
</g>

<g fill="none" stroke="#000000" stroke-opacity="1" stroke-width="1" stroke-linecap="square" stroke-linejoin="bevel" transform="matrix(0.996508,0,0,0.996508,76.7311,375.683)"
font-family="Ubuntu" font-size="14.6667" font-weight="400" font-style="normal" 
>
</g>

<g fill="none" stroke="#000000" stroke-opacity="1" stroke-width="1" stroke-linecap="square" stroke-linejoin="bevel" transform="matrix(0.996508,0,0,0.996508,374.687,50.8219)"
font-family="Ubuntu" font-size="14.6667" font-weight="400" font-style="normal" 
>
</g>

<g fill="none" stroke="#000000" stroke-opacity="1" stroke-width="1" stroke-linecap="square" stroke-linejoin="bevel" transform="matrix(0.996508,0,0,0.996508,374.687,50.8219)"
font-family="Ubuntu" font-size="14.6667" font-weight="400" font-style="normal" 
>
</g>

<g fill="none" stroke="#000000" stroke-opacity="1" stroke-width="1" stroke-linecap="square" stroke-linejoin="bevel" transform="matrix(0.996508,0,0,0.996508,374.687,50.8219)"
font-family="Ubuntu" font-size="14.6667" font-weight="400" font-style="normal" 
>
<text fill="#000000" fill-opacity="1" stroke="none" xml:space="preserve" x="10.7188" y="18" font-family="Ubuntu" font-size="14.6667" font-weight="400" font-style="normal" 
 >1: setup(udpIn : UDP*, client : Client*)</text>
</g>

<g fill="none" stroke="#000000" stroke-opacity="1" stroke-width="1" stroke-linecap="square" stroke-linejoin="bevel" transform="matrix(0.996508,0,0,0.996508,374.687,50.8219)"
font-family="Ubuntu" font-size="14.6667" font-weight="400" font-style="normal" 
>
</g>

<g fill="none" stroke="#000000" stroke-opacity="1" stroke-width="1" stroke-linecap="square" stroke-linejoin="bevel" transform="matrix(0.996508,0,0,0.996508,947.679,349.774)"
font-family="Ubuntu" font-size="14.6667" font-weight="400" font-style="normal" 
>
</g>

<g fill="none" stroke="#000000" stroke-opacity="1" stroke-width="1" stroke-linecap="square" stroke-linejoin="bevel" transform="matrix(0.996508,0,0,0.996508,947.679,349.774)"
font-family="Ubuntu" font-size="14.6667" font-weight="400" font-style="normal" 
>
</g>

<g fill="none" stroke="#000000" stroke-opacity="1" stroke-width="1" stroke-linecap="square" stroke-linejoin="bevel" transform="matrix(0.996508,0,0,0.996508,947.679,349.774)"
font-family="Ubuntu" font-size="14.6667" font-weight="400" font-style="normal" 
>
<text fill="#000000" fill-opacity="1" stroke="none" xml:space="preserve" x="5.0625" y="18" font-family="Ubuntu" font-size="14.6667" font-weight="400" font-style="normal" 
 >6: turnOn</text>
</g>

<g fill="none" stroke="#000000" stroke-opacity="1" stroke-width="1" stroke-linecap="square" stroke-linejoin="bevel" transform="matrix(0.996508,0,0,0.996508,947.679,349.774)"
font-family="Ubuntu" font-size="14.6667" font-weight="400" font-style="normal" 
>
</g>

<g fill="none" stroke="#000000" stroke-opacity="1" stroke-width="1" stroke-linecap="square" stroke-linejoin="bevel" transform="matrix(0.996508,0,0,0.996508,347.781,77.494)"
font-family="Ubuntu" font-size="14.6667" font-weight="400" font-style="normal" 
>
</g>

<g fill="#ffffff" fill-opacity="1" stroke="none" transform="matrix(0.996508,0,0,0.996508,347.781,77.494)"
font-family="Ubuntu" font-size="14.6667" font-weight="400" font-style="normal" 
>
<rect x="0" y="0" width="17" height="20"/>
</g>

<g fill="#ffff00" fill-opacity="1" stroke="#ff0000" stroke-opacity="1" stroke-width="1" stroke-linecap="square" stroke-linejoin="bevel" transform="matrix(0.996508,0,0,0.996508,347.781,77.494)"
font-family="Ubuntu" font-size="14.6667" font-weight="400" font-style="normal" 
>
<rect vector-effect="non-scaling-stroke" x="0" y="0" width="17" height="20"/>
<polyline fill="none" vector-effect="non-scaling-stroke" points="17,3 49,3 " />
<polyline fill="none" vector-effect="non-scaling-stroke" points="49,3 49,17 " />
<polyline fill="none" vector-effect="non-scaling-stroke" points="17,17 21,14 " />
<polyline fill="none" vector-effect="non-scaling-stroke" points="17,17 21,20 " />
<polyline fill="none" vector-effect="non-scaling-stroke" points="17,17 49,17 " />
</g>

<g fill="none" stroke="#000000" stroke-opacity="1" stroke-width="1" stroke-linecap="square" stroke-linejoin="bevel" transform="matrix(0.996508,0,0,0.996508,347.781,77.494)"
font-family="Ubuntu" font-size="14.6667" font-weight="400" font-style="normal" 
>
</g>

<g fill="none" stroke="#000000" stroke-opacity="1" stroke-width="1" stroke-linecap="square" stroke-linejoin="bevel" transform="matrix(0.996508,0,0,0.996508,76.7311,179.537)"
font-family="Ubuntu" font-size="14.6667" font-weight="400" font-style="normal" 
>
</g>

<g fill="none" stroke="#ff0000" stroke-opacity="1" stroke-width="1" stroke-linecap="square" stroke-linejoin="bevel" transform="matrix(0.996508,0,0,0.996508,76.7311,179.537)"
font-family="Ubuntu" font-size="14.6667" font-weight="400" font-style="normal" 
>
<polyline fill="none" vector-effect="non-scaling-stroke" points="272,4 268,1 " />
<polyline fill="none" vector-effect="non-scaling-stroke" points="272,4 268,7 " />
<polyline fill="none" vector-effect="non-scaling-stroke" points="0,4 272,4 " />
</g>

<g fill="none" stroke="#000000" stroke-opacity="1" stroke-width="1" stroke-linecap="square" stroke-linejoin="bevel" transform="matrix(0.996508,0,0,0.996508,76.7311,179.537)"
font-family="Ubuntu" font-size="14.6667" font-weight="400" font-style="normal" 
>
</g>

<g fill="none" stroke="#000000" stroke-opacity="1" stroke-width="1" stroke-linecap="square" stroke-linejoin="bevel" transform="matrix(0.996508,0,0,0.996508,350.771,183.69)"
font-family="Ubuntu" font-size="14.6667" font-weight="400" font-style="normal" 
>
</g>

<g fill="none" stroke="#ff0000" stroke-opacity="1" stroke-width="1" stroke-linecap="square" stroke-linejoin="bevel" transform="matrix(0.996508,0,0,0.996508,350.771,183.69)"
font-family="Ubuntu" font-size="14.6667" font-weight="400" font-style="normal" 
>
<polyline fill="none" vector-effect="non-scaling-stroke" points="398,4 394,1 " />
<polyline fill="none" vector-effect="non-scaling-stroke" points="398,4 394,7 " />
<polyline fill="none" vector-effect="non-scaling-stroke" points="7,4 398,4 " />
</g>

<g fill="none" stroke="#000000" stroke-opacity="1" stroke-width="1" stroke-linecap="square" stroke-linejoin="bevel" transform="matrix(0.996508,0,0,0.996508,350.771,183.69)"
font-family="Ubuntu" font-size="14.6667" font-weight="400" font-style="normal" 
>
</g>

<g fill="none" stroke="#000000" stroke-opacity="1" stroke-width="1" stroke-linecap="square" stroke-linejoin="bevel" transform="matrix(0.996508,0,0,0.996508,347.781,148.253)"
font-family="Ubuntu" font-size="14.6667" font-weight="400" font-style="normal" 
>
</g>

<g fill="#ffffff" fill-opacity="1" stroke="none" transform="matrix(0.996508,0,0,0.996508,347.781,148.253)"
font-family="Ubuntu" font-size="14.6667" font-weight="400" font-style="normal" 
>
<rect x="0" y="0" width="17" height="77"/>
</g>

<g fill="#ffff00" fill-opacity="1" stroke="#ff0000" stroke-opacity="1" stroke-width="1" stroke-linecap="square" stroke-linejoin="bevel" transform="matrix(0.996508,0,0,0.996508,347.781,148.253)"
font-family="Ubuntu" font-size="14.6667" font-weight="400" font-style="normal" 
>
<rect vector-effect="non-scaling-stroke" x="0" y="0" width="17" height="77"/>
<polyline fill="none" vector-effect="non-scaling-stroke" points="17,3 49,3 " />
<polyline fill="none" vector-effect="non-scaling-stroke" points="49,3 49,74 " />
<polyline fill="none" vector-effect="non-scaling-stroke" points="17,74 21,71 " />
<polyline fill="none" vector-effect="non-scaling-stroke" points="17,74 21,77 " />
<polyline fill="none" vector-effect="non-scaling-stroke" points="17,74 49,74 " />
</g>

<g fill="none" stroke="#000000" stroke-opacity="1" stroke-width="1" stroke-linecap="square" stroke-linejoin="bevel" transform="matrix(0.996508,0,0,0.996508,347.781,148.253)"
font-family="Ubuntu" font-size="14.6667" font-weight="400" font-style="normal" 
>
</g>

<g fill="none" stroke="#000000" stroke-opacity="1" stroke-width="1" stroke-linecap="square" stroke-linejoin="bevel" transform="matrix(0.996508,0,0,0.996508,399.6,150.473)"
font-family="Ubuntu" font-size="14.6667" font-weight="400" font-style="normal" 
>
</g>

<g fill="none" stroke="#000000" stroke-opacity="1" stroke-width="1" stroke-linecap="square" stroke-linejoin="bevel" transform="matrix(0.996508,0,0,0.996508,399.6,150.473)"
font-family="Ubuntu" font-size="14.6667" font-weight="400" font-style="normal" 
>
</g>

<g fill="none" stroke="#000000" stroke-opacity="1" stroke-width="1" stroke-linecap="square" stroke-linejoin="bevel" transform="matrix(0.996508,0,0,0.996508,399.6,150.473)"
font-family="Ubuntu" font-size="14.6667" font-weight="400" font-style="normal" 
>
<text fill="#000000" fill-opacity="1" stroke="none" xml:space="preserve" x="15.0625" y="18" font-family="Ubuntu" font-size="14.6667" font-weight="400" font-style="normal" 
 >4: insert(myStromElement : MyStromElement*)</text>
</g>

<g fill="none" stroke="#000000" stroke-opacity="1" stroke-width="1" stroke-linecap="square" stroke-linejoin="bevel" transform="matrix(0.996508,0,0,0.996508,399.6,150.473)"
font-family="Ubuntu" font-size="14.6667" font-weight="400" font-style="normal" 
>
</g>

<g fill="none" stroke="#000000" stroke-opacity="1" stroke-width="1" stroke-linecap="square" stroke-linejoin="bevel" transform="matrix(1,0,0,1,0,0)"
font-family="Ubuntu" font-size="14.6667" font-weight="400" font-style="normal" 
>
</g>
</g>
</svg>
